<svg xmlns="http://www.w3.org/2000/svg" x="0px" y="0px"
width="104" height="104"
viewBox="0 0 226 226"
style=" fill:#000000;"><g fill="none" fill-rule="nonzero" stroke="none" stroke-width="1" stroke-linecap="butt" stroke-linejoin="miter" stroke-miterlimit="10" stroke-dasharray="" stroke-dashoffset="0" font-family="none" font-weight="none" font-size="none" text-anchor="none" style="mix-blend-mode: normal"><path d="M0,226v-226h226v226z" fill="none"></path><g fill="#ffffff"><path d="M26.07692,17.38462c-14.39663,0 -26.07692,11.68029 -26.07692,26.07692v147.76923c0,14.39663 11.68029,26.07692 26.07692,26.07692h173.84615c14.39663,0 26.07692,-11.68029 26.07692,-26.07692v-121.69231c0,-14.39663 -11.68029,-26.07692 -26.07692,-26.07692h-104.30769c0,-14.39663 -11.68029,-26.07692 -26.07692,-26.07692zM26.07692,60.84615h173.84615c4.78756,0 8.69231,3.90475 8.69231,8.69231v121.69231c0,4.78756 -3.90475,8.69231 -8.69231,8.69231h-173.84615c-4.78756,0 -8.69231,-3.90475 -8.69231,-8.69231v-121.69231c0,-4.78756 3.90475,-8.69231 8.69231,-8.69231z"></path></g></g></svg>